<svg width="20" height="20" viewBox="0 0 20 20" fill="none" xmlns="http://www.w3.org/2000/svg">
<path fill-rule="evenodd" clip-rule="evenodd" d="M1.66666 14.1667V6.66667C1.66666 5.78261 2.01785 4.93476 2.64297 4.30964C3.26809 3.68452 4.11593 3.33333 4.99999 3.33333H7.77249C8.39507 3.33311 8.99532 3.56519 9.45582 3.98417L8.33332 5.2175C8.17998 5.0777 7.97999 5.00015 7.77249 5H4.99999C4.55796 5 4.13404 5.17559 3.82148 5.48815C3.50892 5.80071 3.33332 6.22464 3.33332 6.66667V14.1667C3.33332 14.6087 3.50892 15.0326 3.82148 15.3452C4.13404 15.6577 4.55796 15.8333 4.99999 15.8333H15C15.442 15.8333 15.8659 15.6577 16.1785 15.3452C16.4911 15.0326 16.6667 14.6087 16.6667 14.1667V8.83333C16.6667 8.39131 16.4911 7.96738 16.1785 7.65482C15.8659 7.34226 15.442 7.16667 15 7.16667H11.1208C10.7063 7.16662 10.3067 7.01213 9.99999 6.73333L8.33332 5.2175L9.45582 3.98417L11.1208 5.5H15C15.884 5.5 16.7319 5.85119 17.357 6.47631C17.9821 7.10143 18.3333 7.94928 18.3333 8.83333V14.1667C18.3333 15.0507 17.9821 15.8986 17.357 16.5237C16.7319 17.1488 15.884 17.5 15 17.5H4.99999C4.11593 17.5 3.26809 17.1488 2.64297 16.5237C2.01785 15.8986 1.66666 15.0507 1.66666 14.1667Z" fill="#777A7E"/>
</svg>
